<?xml version="1.0" standalone="no"?>
<!DOCTYPE svg PUBLIC "-//W3C//DTD SVG 20010904//EN"
 "http://www.w3.org/TR/2001/REC-SVG-20010904/DTD/svg10.dtd">
<svg version="1.0" xmlns="http://www.w3.org/2000/svg"
 width="1000.000000pt" height="1000.000000pt" viewBox="0 0 1000.000000 1000.000000"
 preserveAspectRatio="xMidYMid meet">

<g transform="translate(0.000000,1000.000000) scale(0.100000,-0.100000)"
fill="#000000" stroke="none">
<path d="M0 5000 l0 -5000 5000 0 5000 0 0 5000 0 5000 -5000 0 -5000 0 0
-5000z m8005 2830 l0 -175 -2827 -3 -2828 -2 0 -175 0 -175 2828 -2 2827 -3 3
-527 2 -528 -3010 0 -3010 0 0 833 c0 457 3 856 6 885 l7 52 3001 -2 3001 -3
0 -175z m-3 -2476 c2 -289 1 -528 -1 -530 -2 -2 -559 -4 -1238 -4 l-1233 0 0
-175 0 -175 1237 -2 1238 -3 3 -50 c2 -27 1 -105 -3 -172 l-7 -123 -1409 0
-1409 0 0 530 0 530 1235 0 1235 0 0 175 0 175 -2650 0 -2650 0 0 -175 0 -175
1235 0 1235 0 0 -530 0 -530 -1415 0 -1415 0 0 153 c0 83 3 162 6 175 l6 22
1234 0 1234 0 0 175 0 175 -1237 2 -1238 3 -3 528 -2 527 3005 0 3005 0 2
-526z m0 -2479 l-2 -885 -3003 2 -3002 3 0 175 0 175 2828 3 2827 2 0 175 0
175 -2827 2 -2828 3 -3 528 -2 527 3007 0 3008 0 -3 -885z"/>
<path d="M2350 6765 l0 -175 2650 0 2650 0 0 175 0 175 -2650 0 -2650 0 0
-175z"/>
<path d="M2350 3235 l0 -175 2650 0 2650 0 0 175 0 175 -2650 0 -2650 0 0
-175z"/>
</g>
</svg>
